# xmcd
#
# Track frame offsets:
#	150
#	15845
#	29648
#	42720
#	58754
#	76107
#	93249
#	110741
#	128488
#	143179
#	157289
#	173203
#
# Disc length: 2498 seconds
#
# Revision: 1
# Processed by: cddbd v1.5.1PL2 Copyright (c) Steve Scherf et al.
# Submitted via: audiograbber 1.83.01
#
DISCID=9e09c00c
DTITLE=Michelle Wright - Everything And More
DYEAR=2006
DGENRE=Country
TTITLE0=Everything And More
TTITLE1=Dance In The Boat
TTITLE2=Riding Around The Sun
TTITLE3=I Don't Wanna Be That Strong
TTITLE4=In The Blink Of An Eye
TTITLE5=I've Forgotten You
TTITLE6=Love Me Anyway
TTITLE7=Something Wild
TTITLE8=You Can't Lose Them All
TTITLE9=My Give A Damn's Busted
TTITLE10=Like An Angel
TTITLE11=Voodoo
EXTD=
EXTT0=
EXTT1=
EXTT2=
EXTT3=
EXTT4=
EXTT5=
EXTT6=
EXTT7=
EXTT8=
EXTT9=
EXTT10=
EXTT11=
PLAYORDER=
